# xmcd
#
# Track frame offsets:
#	183
#	13650
#	27425
#	39958
#	54273
#	67563
#	81748
#	94223
#	107555
#	122248
#	135678
#	149860
#	162110
#	177348
#	189673
#	204305
#	217010
#	229880
#
# Disc length: 3257 seconds
#
# Revision: 1
# Processed by: cddbd v1.5.1PL2 Copyright (c) Steve Scherf et al.
# Submitted via: EasyCDDAExtractor 6.0.0.1
#
DISCID=030cb712
DTITLE=Hank Snow - Country Music CM008
DYEAR=1999
DGENRE=Country
TTITLE0=My San Antonio Mamma
TTITLE1=The Hobo's Last Ride
TTITLE2=Lonesome Blue Yodel
TTITLE3=The Blue Velvet Band
TTITLE4=Blue For Old Hawaii
TTITLE5=Was There Ever A Pal Like You
TTITLE6=My Little Swiss Maiden
TTITLE7=We Met In The Hills Of Old Wyoming
TTITLE8=Someday You'll Care
TTITLE9=The Texas Cowboy
TTITLE10=Bluer Than Blue
TTITLE11=I'll Ride Back To Lonesome Valley
TTITLE12=Answer To Blue Velvet Band
TTITLE13=Wandering On
TTITLE14=The Broken Wedding Ring
TTITLE15=Polka Dot Blues
TTITLE16=Goodnight Little Buckaroo
TTITLE17=The Galveston Rose
EXTD=
EXTT0=
EXTT1=
EXTT2=
EXTT3=
EXTT4=
EXTT5=
EXTT6=
EXTT7=
EXTT8=
EXTT9=
EXTT10=
EXTT11=
EXTT12=
EXTT13=
EXTT14=
EXTT15=
EXTT16=
EXTT17=
PLAYORDER=
